<?xml version="1.0" encoding="UTF-8"?>
<svg width="179px" height="42px" viewBox="0 0 179 42" version="1.1" xmlns="http://www.w3.org/2000/svg" xmlns:xlink="http://www.w3.org/1999/xlink">
    <!-- Generator: sketchtool 55.1 (78136) - https://sketchapp.com -->
    <title>3BB7A973-2396-4DCC-93CC-FFDBDD5B1A54</title>
    <desc>Created with sketchtool.</desc>
    <g id="Symbols" stroke="none" stroke-width="1" fill="none" fill-rule="evenodd">
        <g id="logo-white" fill="#FFFFFF" fill-rule="nonzero">
            <g id="rss.az" transform="translate(-0.900000, 0.050000)">
                <path d="M25.3084604,9.59117647 C25.3084604,10.3558824 25.0564173,10.85294 24.5523237,11.0823529 C24.0482301,11.3117659 23.5189397,11.3500008 22.9644367,11.1970588 C22.1578869,10.9931362 21.2253276,10.9421564 20.166731,11.0441176 C19.1081344,11.1460789 18.1125644,11.4264683 17.1799912,11.8852941 C16.2474179,12.3441199 15.4660845,12.9941134 14.8359675,13.8352941 C14.2058504,14.6764748 13.8907966,15.7597973 13.8907966,17.0852941 L13.8907966,29.0911765 C13.8907966,29.5500023 13.9664095,29.8941165 14.1176376,30.1235294 C14.2688657,30.3529423 14.4705002,30.5441169 14.722547,30.6970588 C15.1258219,30.9519621 15.5164886,31.3725461 15.8945588,31.9588235 C16.272629,32.545101 16.4616613,33.3225442 16.4616613,34.2911765 L16.3860476,39.5676471 L0.885245902,39.5676471 L0.885245902,34.2147059 C0.885245902,33.2460736 1.07427818,32.4686304 1.4523484,31.8823529 C1.83041863,31.2960755 2.22108534,30.8754915 2.62436024,30.6205882 C2.87640706,30.4676463 3.07804149,30.2764717 3.22926958,30.0470588 C3.38049767,29.8176459 3.45611058,29.4480418 3.45611058,28.9382353 L3.45611058,11.4264706 C3.45611058,11.1205867 3.36789552,10.8656863 3.19146275,10.6617647 C3.01502997,10.4578421 2.80079339,10.2794125 2.54874658,10.1264706 C2.14547167,9.82058671 1.76740711,9.38725771 1.41454157,8.82647059 C1.06167603,8.26568347 0.885245902,7.55196512 0.885245902,6.68529412 L0.885245902,1.33235294 L12.0760686,1.33235294 C13.2858933,1.33235294 13.8907966,1.86764171 13.8907966,2.93823529 L13.8907966,4.46764706 C14.2436622,4.05980188 14.6973396,3.67745276 15.2518426,3.32058824 C15.7055269,3.01470435 16.2474194,2.70882353 16.8775365,2.40294118 C17.5076535,2.09705729 18.2511805,1.81666794 19.1081397,1.56176471 C20.0155082,1.30686147 20.9354653,1.17941176 21.8680385,1.17941176 C22.8006117,1.17941176 23.3929129,1.20490171 23.6449597,1.25588235 C24.098644,1.35784365 24.4893107,1.51078329 24.8169715,1.71470588 C25.1446324,1.91862847 25.3084604,2.58136694 25.3084604,3.70294118 L25.3084604,9.59117647 Z M45.1491132,9.89705882 C44.3929727,9.89705882 43.6998544,10.0882334 43.0697374,10.4705882 C42.4396203,10.8529431 42.1245665,11.4774466 42.1245665,12.3441176 C42.1245665,13.1088274 42.5404375,13.7460759 43.372192,14.2558824 C44.2039465,14.7656888 45.237323,15.2882326 46.4723524,15.8235294 C47.7073818,16.3588262 49.055812,16.9323499 50.5176836,17.5441176 C51.9795478,18.1558854 53.3279853,18.9205836 54.5630147,19.8382353 C55.7980442,20.7558869 56.8314206,21.8774444 57.6631751,23.2029412 C58.4949296,24.528438 58.9108006,26.1597942 58.9108006,28.0970588 C58.9108006,30.3911879 58.5201339,32.2901886 57.7387888,33.7941176 C56.9574436,35.2980467 55.911465,36.5088189 54.6008216,37.4264706 C53.2901781,38.3441222 51.7779199,38.9941157 50.0640016,39.3764706 C48.3500832,39.7588254 46.5605776,39.95 44.6954312,39.95 C40.3602259,39.95 37.04586,38.9558923 34.752234,36.9676471 C32.4586079,34.9794018 31.3118121,32.3284479 31.3118121,29.0147059 L31.3118121,24.8088235 L37.2096782,24.8088235 C39.8813744,24.8088235 41.2172025,26.0323407 41.2172025,28.4794118 C41.2172025,29.3970634 41.507052,30.0343119 42.0867597,30.3911765 C42.6664674,30.748041 43.4099989,30.9264706 44.3173629,30.9264706 C45.5775969,30.9264706 46.4471454,30.6205913 46.9260344,30.0088235 C47.4049233,29.3970558 47.6443642,28.6578475 47.6443642,27.7911765 C47.6443642,26.9245055 47.2536975,26.2107871 46.4723524,25.65 C45.6910072,25.0892129 44.7206415,24.5411791 43.5612262,24.0058824 C42.4018166,23.4705856 41.1289935,22.8843169 39.742736,22.2470588 C38.3564785,21.6098007 37.0836612,20.8196126 35.9242458,19.8764706 C34.7648305,18.9333286 33.7944648,17.7735294 33.0131196,16.3970588 C32.2317745,15.0205814 31.8411078,13.3127553 31.8411078,11.2735294 C31.8411078,9.94803259 32.105753,8.66079056 32.6350513,7.41176471 C33.1643496,6.16273885 33.9708873,5.06667138 35.0546886,4.12352941 C36.13849,3.18038744 37.5247267,2.41568921 39.2134403,1.82941176 C40.902154,1.24313432 42.9058961,0.95 45.2247269,0.95 C47.2915108,0.95 49.1440271,1.23038935 50.7823314,1.79117647 C52.4206357,2.35196359 53.8068724,3.10391685 54.9410831,4.04705882 C56.0752938,4.99020079 56.9322401,6.08626826 57.5119478,7.33529412 C58.0916554,8.58431997 58.3815049,9.89705194 58.3815049,11.2735294 L58.3815049,15.7088235 L52.9373209,15.7088235 C51.5762681,15.7088235 50.5176873,15.4284342 49.7615469,14.8676471 C49.0054064,14.3068599 48.6273419,13.4911818 48.6273419,12.4205882 C48.6273419,11.5539172 48.2996859,10.9166687 47.6443642,10.5088235 C46.9890425,10.1009784 46.1573005,9.89705882 45.1491132,9.89705882 Z M80.5661814,9.89705882 C79.810041,9.89705882 79.1169226,10.0882334 78.4868056,10.4705882 C77.8566886,10.8529431 77.5416348,11.4774466 77.5416348,12.3441176 C77.5416348,13.1088274 77.9575058,13.7460759 78.7892603,14.2558824 C79.6210148,14.7656888 80.6543912,15.2882326 81.8894206,15.8235294 C83.12445,16.3588262 84.4728803,16.9323499 85.9347518,17.5441176 C87.396616,18.1558854 88.7450536,18.9205836 89.980083,19.8382353 C91.2151124,20.7558869 92.2484888,21.8774444 93.0802433,23.2029412 C93.9119978,24.528438 94.3278689,26.1597942 94.3278689,28.0970588 C94.3278689,30.3911879 93.9372021,32.2901886 93.155857,33.7941176 C92.3745119,35.2980467 91.3285333,36.5088189 90.0178898,37.4264706 C88.7072464,38.3441222 87.1949882,38.9941157 85.4810698,39.3764706 C83.7671515,39.7588254 81.9776459,39.95 80.1124994,39.95 C75.7772942,39.95 72.4629283,38.9558923 70.1693022,36.9676471 C67.8756762,34.9794018 66.7288804,32.3284479 66.7288804,29.0147059 L66.7288804,24.8088235 L72.6267464,24.8088235 C75.2984427,24.8088235 76.6342708,26.0323407 76.6342708,28.4794118 C76.6342708,29.3970634 76.9241203,30.0343119 77.5038279,30.3911765 C78.0835356,30.748041 78.8270671,30.9264706 79.7344311,30.9264706 C80.9946652,30.9264706 81.8642137,30.6205913 82.3431026,30.0088235 C82.8219916,29.3970558 83.0614325,28.6578475 83.0614325,27.7911765 C83.0614325,26.9245055 82.6707658,26.2107871 81.8894206,25.65 C81.1080755,25.0892129 80.1377098,24.5411791 78.9782944,24.0058824 C77.8188849,23.4705856 76.5460617,22.8843169 75.1598043,22.2470588 C73.7735468,21.6098007 72.5007294,20.8196126 71.3413141,19.8764706 C70.1818987,18.9333286 69.211533,17.7735294 68.4301879,16.3970588 C67.6488428,15.0205814 67.258176,13.3127553 67.258176,11.2735294 C67.258176,9.94803259 67.5228212,8.66079056 68.0521195,7.41176471 C68.5814179,6.16273885 69.3879556,5.06667138 70.4717569,4.12352941 C71.5555582,3.18038744 72.9417949,2.41568921 74.6305086,1.82941176 C76.3192223,1.24313432 78.3229644,0.95 80.6417951,0.95 C82.708579,0.95 84.5610953,1.23038935 86.1993996,1.79117647 C87.837704,2.35196359 89.2239407,3.10391685 90.3581513,4.04705882 C91.492362,4.99020079 92.3493083,6.08626826 92.929016,7.33529412 C93.5087237,8.58431997 93.7985732,9.89705194 93.7985732,11.2735294 L93.7985732,15.7088235 L88.3543892,15.7088235 C86.9933363,15.7088235 85.9347556,15.4284342 85.1786151,14.8676471 C84.4224747,14.3068599 84.0444101,13.4911818 84.0444101,12.4205882 C84.0444101,11.5539172 83.7167542,10.9166687 83.0614325,10.5088235 C82.4061107,10.1009784 81.5743687,9.89705882 80.5661814,9.89705882 Z" id="rss"></path>
                <path d="M110.889275,32.3286408 L110.889275,39.6296117 C110.889275,40.0438511 110.381345,40.3674746 109.36547,40.6004854 C108.349595,40.8334963 107.23215,40.95 106.0131,40.95 C104.743256,40.95 103.62581,40.8464412 102.660729,40.6393204 C101.695648,40.4321996 101.213115,40.1215231 101.213115,39.7072816 L101.213115,32.4839806 C101.213115,32.0179588 101.72105,31.6943375 102.73692,31.5131068 C103.752789,31.3318761 104.844844,31.2412621 106.0131,31.2412621 C107.23215,31.2412621 108.349595,31.344821 109.36547,31.5519417 C110.381345,31.7590615 110.889275,32.0179596 110.889275,32.3286408 Z M145.585933,32.3286408 C145.992283,32.5875417 146.322437,33.0923911 146.576406,33.8432039 C146.830375,34.5940167 146.957357,35.4613219 146.957357,36.4451456 L146.957357,40.2509709 L138.043099,40.2509709 C137.433574,40.2509709 136.938343,40.0697429 136.55739,39.7072816 C136.176436,39.3448202 135.93517,38.9564746 135.833582,38.542233 C135.12247,39.1635953 134.284386,39.6684447 133.319305,40.0567961 C132.354223,40.4451476 131.135192,40.6393204 129.662173,40.6393204 C127.17328,40.6393204 125.128862,40.3027508 123.528859,39.6296117 C121.928856,38.9564691 120.67173,38.0373845 119.757442,36.8723301 C118.843159,35.7072757 118.208243,34.3610109 117.852686,32.8334951 C117.49713,31.3059794 117.319355,29.7137623 117.319355,28.0567961 L117.319355,27.0470874 C117.319355,24.9758796 117.674906,23.2930485 118.386018,21.9985437 C119.09713,20.7040388 120.049499,19.6684505 121.243152,18.8917476 C122.436805,18.1150447 123.820914,17.5325262 125.39552,17.1441748 C126.970118,16.7558233 128.646294,16.4063122 130.424075,16.0956311 C131.033597,15.9920707 131.566927,15.875567 132.02407,15.7461165 C132.481214,15.616666 132.862162,15.4742726 133.166924,15.318932 C133.52248,15.1118113 133.827238,14.9305825 134.081207,14.7752427 L134.081207,12.2121359 C134.081207,11.6425538 133.852638,11.1506493 133.395495,10.7364078 C132.938351,10.3221662 132.303439,10.1150485 131.490739,10.1150485 C130.779626,10.1150485 130.106619,10.2703883 129.471698,10.581068 C128.836776,10.8917491 128.51932,11.3577639 128.51932,11.9791262 C128.51932,12.445148 128.354242,12.7428796 128.024083,12.8723301 C127.693924,13.0017806 127.147899,13.0665049 126.385993,13.0665049 L118.157447,13.0665049 L118.157447,10.9694175 C118.157447,9.67491262 118.449507,8.4322066 119.033635,7.24126214 C119.617763,6.05031767 120.481244,4.98883961 121.624103,4.05679612 C122.766962,3.12475262 124.163769,2.37395107 125.814566,1.80436893 C127.465363,1.2347868 129.382798,0.95 131.566929,0.95 C133.75106,0.95 135.668495,1.24773165 137.319292,1.84320388 C138.970089,2.43867612 140.341499,3.24125709 141.433565,4.25097087 C142.52563,5.26068466 143.351016,6.39983184 143.909747,7.6684466 C144.468479,8.93706136 144.74784,10.2186019 144.74784,11.5131068 L144.67165,30.6199029 C144.67165,31.0341445 144.785934,31.3836555 145.014506,31.6684466 C145.243078,31.9532377 145.458948,32.1733002 145.662123,32.3286408 L145.585933,32.3286408 Z M131.490739,31.7849515 C131.998676,31.7331713 132.40502,31.6296124 132.709783,31.4742718 C133.014545,31.3189313 133.293906,31.163593 133.547875,31.0082524 C133.75105,30.8011317 133.954222,30.6199029 134.157397,30.4645631 L134.157397,21.2995146 C133.903428,21.403075 133.67486,21.5066338 133.471685,21.6101942 C133.26851,21.7137546 133.027243,21.8043685 132.747878,21.8820388 C132.468512,21.9597091 132.201849,22.0503231 131.94788,22.1538835 C131.338355,22.3610043 130.792331,22.5551771 130.30979,22.7364078 C129.82725,22.9176384 129.408207,23.1894804 129.052651,23.5519417 C128.697095,23.9144031 128.417733,24.4063107 128.214559,25.0276699 C128.011384,25.6490322 127.909798,26.4516132 127.909798,27.4354369 L127.909798,27.9791262 C127.909798,29.3771915 128.278047,30.3868901 129.014556,31.0082524 C129.751065,31.6296148 130.576451,31.8885118 131.490739,31.7849515 Z M179.901639,27.9014563 L179.901639,38.4645631 C179.901639,38.8788047 179.723864,39.2800951 179.368308,39.6684466 C179.012751,40.0567981 178.631804,40.2509709 178.225454,40.2509709 L154.606481,40.2509709 C154.200131,40.2509709 153.895372,40.1085775 153.692198,39.8237864 C153.489023,39.5389953 153.387437,39.2412637 153.387437,38.9305825 L153.387437,31.3966019 C153.387437,31.0341406 153.450928,30.6328501 153.577912,30.1927184 C153.704897,29.7525868 154.047749,29.1959581 154.606481,28.5228155 C154.758862,28.3156948 155.215999,27.7461212 155.977905,26.8140777 C156.739811,25.8820342 157.628688,24.7817216 158.644563,23.5131068 C159.660438,22.244492 160.752487,20.8852823 161.920743,19.4354369 C163.088999,17.9855987 164.16835,16.6393266 165.158828,15.3966019 C166.149306,14.1538773 166.961994,13.1182889 167.596916,12.2898058 C168.231838,11.4613227 168.57469,10.995308 168.625484,10.8917476 C168.828659,10.3739456 168.625484,10.1150485 168.015962,10.1150485 L162.606455,10.1150485 C162.301693,10.1150485 162.111219,10.2962765 162.035029,10.6587379 C161.958838,11.0211992 161.920743,11.3318757 161.920743,11.5907767 L161.920743,13.2995146 L156.587427,13.2995146 C155.723933,13.2995146 155.050926,13.0406175 154.568385,12.5228155 C154.085845,12.0050136 153.844578,11.3577709 153.844578,10.581068 L153.844578,3.35776699 C153.844578,2.06326214 154.403307,1.41601942 155.520763,1.41601942 L177.844503,1.41601942 C178.75879,1.41601942 179.215927,1.85614447 179.215927,2.73640777 L179.215927,11.4354369 C179.215927,11.6943379 179.152436,11.9661798 179.025452,12.2509709 C178.898467,12.5357619 178.784183,12.8076052 178.682596,13.0665049 C178.479421,13.3254045 178.301645,13.6101926 178.149264,13.9208738 C175.812752,16.924125 173.730239,19.6425445 171.901664,22.0762136 C171.139758,23.1118175 170.377863,24.1215161 169.615957,25.1053398 C168.854051,26.0891635 168.168346,26.9694136 167.558821,27.7461165 C166.949296,28.5228194 166.454064,29.1571173 166.073111,29.6490291 C165.692158,30.140941 165.501684,30.4127832 165.501684,30.4645631 C165.400097,30.7234641 165.425493,30.9435266 165.577875,31.1247573 C165.730256,31.305988 165.933428,31.3966019 166.187397,31.3966019 L171.444523,31.3966019 C171.444523,30.6716792 171.660393,29.9079328 172.09214,29.1053398 C172.523887,28.3027468 173.146101,27.9014563 173.958801,27.9014563 L179.901639,27.9014563 Z" id=".az"></path>
            </g>
        </g>
    </g>
</svg>