<svg xmlns="http://www.w3.org/2000/svg" width="179" height="42" viewBox="0 0 179 42">
    <g fill="none" fill-rule="nonzero">
        <path fill="#BB1D31" d="M24.408 9.641c0 .765-.252 1.262-.756 1.491a2.266 2.266 0 0 1-1.588.115c-.806-.204-1.739-.255-2.797-.153a8.569 8.569 0 0 0-2.987.841 6.45 6.45 0 0 0-2.344 1.95c-.63.841-.945 1.925-.945 3.25v12.006c0 .459.075.803.227 1.033.15.229.353.42.605.573.403.255.793.676 1.172 1.262.378.586.567 1.364.567 2.332l-.076 5.277h-15.5v-5.353c0-.969.188-1.746.566-2.333.378-.586.77-1.007 1.172-1.261.252-.153.454-.345.605-.574.151-.23.227-.599.227-1.109V11.476c0-.305-.088-.56-.265-.764a2.678 2.678 0 0 0-.642-.536c-.404-.305-.782-.739-1.134-1.3-.353-.56-.53-1.274-.53-2.14V1.381h11.191c1.21 0 1.815.536 1.815 1.606v1.53c.353-.408.806-.79 1.36-1.147a13.36 13.36 0 0 1 1.627-.918c.63-.306 1.373-.586 2.23-.841a10.158 10.158 0 0 1 2.76-.383c.933 0 1.525.026 1.777.077.454.102.844.255 1.172.459.328.204.491.866.491 1.988V9.64zm19.841.306c-.756 0-1.45.191-2.08.574-.63.382-.944 1.006-.944 1.873 0 .765.415 1.402 1.247 1.912.832.51 1.865 1.032 3.1 1.568 1.235.535 2.584 1.108 4.046 1.72a19.143 19.143 0 0 1 4.045 2.294 12.286 12.286 0 0 1 3.1 3.365c.832 1.325 1.248 2.957 1.248 4.894 0 2.294-.39 4.193-1.172 5.697-.782 1.504-1.828 2.715-3.138 3.632-1.31.918-2.823 1.568-4.537 1.95a24.59 24.59 0 0 1-5.369.574c-4.335 0-7.65-.994-9.943-2.982-2.293-1.989-3.44-4.64-3.44-7.953v-4.206h5.898c2.671 0 4.007 1.223 4.007 3.67 0 .918.29 1.555.87 1.912.58.357 1.323.535 2.23.535 1.26 0 2.13-.305 2.609-.917.479-.612.718-1.351.718-2.218 0-.866-.39-1.58-1.172-2.141-.781-.56-1.751-1.109-2.91-1.644-1.16-.535-2.433-1.122-3.82-1.759a17.813 17.813 0 0 1-3.818-2.37c-1.16-.944-2.13-2.103-2.91-3.48-.782-1.376-1.173-3.084-1.173-5.123 0-1.326.265-2.613.794-3.862.53-1.25 1.336-2.345 2.42-3.288 1.083-.944 2.47-1.708 4.158-2.295C40.003 1.293 42.006 1 44.325 1c2.067 0 3.919.28 5.557.841 1.639.561 3.025 1.313 4.16 2.256 1.133.943 1.99 2.04 2.57 3.288.58 1.25.87 2.562.87 3.939v4.435h-5.445c-1.36 0-2.42-.28-3.175-.841-.757-.561-1.135-1.377-1.135-2.447 0-.867-.327-1.504-.983-1.912-.655-.408-1.487-.612-2.495-.612zm35.417 0c-.756 0-1.45.191-2.08.574-.63.382-.944 1.006-.944 1.873 0 .765.416 1.402 1.247 1.912.832.51 1.865 1.032 3.1 1.568 1.235.535 2.584 1.108 4.046 1.72a19.143 19.143 0 0 1 4.045 2.294 12.286 12.286 0 0 1 3.1 3.365c.832 1.325 1.248 2.957 1.248 4.894 0 2.294-.39 4.193-1.172 5.697-.781 1.504-1.827 2.715-3.138 3.632-1.31.918-2.823 1.568-4.537 1.95a24.59 24.59 0 0 1-5.369.574c-4.335 0-7.65-.994-9.943-2.982-2.293-1.989-3.44-4.64-3.44-7.953v-4.206h5.898c2.671 0 4.007 1.223 4.007 3.67 0 .918.29 1.555.87 1.912.58.357 1.323.535 2.23.535 1.26 0 2.13-.305 2.61-.917.478-.612.717-1.351.717-2.218 0-.866-.39-1.58-1.172-2.141-.78-.56-1.751-1.109-2.91-1.644a2562.33 2562.33 0 0 0-3.82-1.759 17.813 17.813 0 0 1-3.818-2.37c-1.16-.944-2.13-2.103-2.91-3.48-.782-1.376-1.173-3.084-1.173-5.123 0-1.326.265-2.613.794-3.862.53-1.25 1.336-2.345 2.42-3.288 1.084-.944 2.47-1.708 4.159-2.295C75.419 1.293 77.423 1 79.74 1c2.068 0 3.92.28 5.558.841 1.639.561 3.025 1.313 4.16 2.256 1.133.943 1.99 2.04 2.57 3.288.58 1.25.87 2.562.87 3.939v4.435h-5.445c-1.36 0-2.42-.28-3.175-.841-.757-.561-1.135-1.377-1.135-2.447 0-.867-.327-1.504-.983-1.912-.655-.408-1.487-.612-2.495-.612z"/>
        <path fill="#474747" d="M109.99 32.379v7.3c0 .415-.509.738-1.525.971-1.015.233-2.133.35-3.352.35-1.27 0-2.387-.104-3.352-.31-.965-.208-1.448-.518-1.448-.933v-7.223c0-.466.508-.79 1.524-.97a18.663 18.663 0 0 1 3.276-.273c1.22 0 2.337.104 3.352.31 1.016.208 1.524.467 1.524.778zm34.696 0c.406.259.736.763.99 1.514s.381 1.618.381 2.602v3.806h-8.914c-.61 0-1.105-.181-1.486-.544-.38-.362-.622-.75-.723-1.165a8.742 8.742 0 0 1-2.515 1.515c-.965.388-2.184.582-3.657.582-2.489 0-4.533-.336-6.133-1.01-1.6-.673-2.857-1.592-3.772-2.757-.914-1.165-1.549-2.511-1.904-4.039a21.006 21.006 0 0 1-.534-4.776v-1.01c0-2.071.356-3.754 1.067-5.048.711-1.295 1.663-2.33 2.857-3.107 1.194-.777 2.578-1.36 4.153-1.748a74.815 74.815 0 0 1 5.028-1.048c.61-.104 1.143-.22 1.6-.35.457-.13.838-.272 1.143-.427.355-.207.66-.388.914-.544v-2.563c0-.57-.228-1.061-.686-1.476-.457-.414-1.092-.621-1.904-.621-.711 0-1.384.155-2.02.466-.634.31-.952.777-.952 1.398 0 .466-.165.764-.495.893-.33.13-.876.195-1.638.195h-8.229v-2.098c0-1.294.293-2.537.877-3.728.584-1.19 1.447-2.252 2.59-3.184 1.143-.932 2.54-1.683 4.19-2.253 1.651-.57 3.569-.854 5.753-.854s4.101.298 5.752.893c1.651.596 3.022 1.398 4.115 2.408 1.092 1.01 1.917 2.149 2.476 3.417.558 1.27.838 2.55.838 3.845l-.076 19.107c0 .414.114.764.343 1.048.228.285.444.505.647.66h-.076zm-14.095-.544c.508-.052.914-.155 1.219-.31.305-.156.584-.311.838-.467.203-.207.406-.388.61-.543V21.35a8.997 8.997 0 0 0-.686.31 3.9 3.9 0 0 1-.724.272c-.28.078-.546.168-.8.272-.61.207-1.156.401-1.638.582a3.426 3.426 0 0 0-1.257.816c-.356.362-.635.854-.838 1.476-.204.621-.305 1.424-.305 2.407v.544c0 1.398.368 2.408 1.105 3.03.736.62 1.561.88 2.476.776zM179 27.951v10.564c0 .414-.177.815-.533 1.203-.355.389-.736.583-1.143.583h-23.619c-.406 0-.71-.142-.914-.427a1.516 1.516 0 0 1-.305-.893v-7.534c0-.363.064-.764.19-1.204.128-.44.47-.997 1.03-1.67.152-.207.609-.777 1.37-1.709.763-.932 1.652-2.032 2.668-3.3a1725.52 1725.52 0 0 1 3.276-4.079 974.726 974.726 0 0 0 3.238-4.038c.99-1.243 1.803-2.279 2.438-3.107.635-.829.978-1.295 1.028-1.398.204-.518 0-.777-.609-.777h-5.41c-.304 0-.495.181-.571.544a4.639 4.639 0 0 0-.114.932v1.709h-5.334c-.863 0-1.536-.26-2.019-.777-.482-.518-.723-1.165-.723-1.942V3.408c0-1.295.558-1.942 1.676-1.942h22.324c.914 0 1.37.44 1.37 1.32v8.7c0 .258-.063.53-.19.815-.127.285-.24.557-.342.816a4.808 4.808 0 0 0-.534.854 617.107 617.107 0 0 0-6.247 8.155 153.896 153.896 0 0 1-2.286 3.03c-.762.983-1.448 1.863-2.057 2.64-.61.777-1.105 1.411-1.486 1.903-.38.492-.571.764-.571.816-.102.258-.077.479.076.66a.756.756 0 0 0 .61.272h5.257c0-.725.215-1.49.647-2.292.432-.802 1.054-1.204 1.867-1.204h5.943z"/>
    </g>
</svg>
